<svg xmlns="http://www.w3.org/2000/svg" width="375" viewBox="0 0 375 375" height="375" version="1.0"><defs><clipPath id="a"><path d="M 60 46 L 315.242188 46 L 315.242188 337 L 60 337 Z M 60 46"/></clipPath></defs><g clip-path="url(#a)"><path fill="#E26786" d="M 67.421875 80.550781 C 68.648438 78.097656 69.335938 75.382812 70.578125 72.945312 C 77.121094 60.285156 87.488281 52.480469 101.207031 48.785156 C 142.101562 37.742188 162.476562 72.863281 182.230469 97.992188 C 190.980469 109.082031 200.21875 115.558594 214.9375 115.984375 C 240.625 116.882812 272.691406 102.144531 296.519531 121.5625 C 305.871094 129.1875 314.71875 145.152344 315.175781 164.863281 C 315.230469 172.203125 314.582031 179.480469 313.234375 186.695312 C 311.886719 193.910156 309.863281 200.929688 307.164062 207.753906 C 298.691406 230.441406 276.585938 289.808594 262.914062 309.355469 C 237.550781 345.621094 204.324219 343.625 184.03125 314.769531 C 155.316406 274.152344 153.859375 230.640625 141.988281 207.722656 C 131.03125 186.554688 111.132812 189.1875 88.027344 180.730469 C 75.191406 176.019531 66.734375 167.921875 62.613281 154.3125 C 61.199219 149.847656 60.488281 145.273438 60.472656 140.585938 C 60.621094 122.871094 59.523438 96.339844 67.421875 80.550781 Z M 67.421875 80.550781"/></g></svg>